<?xml version="1.0" encoding="utf-8"?>
<!-- Generator: Adobe Illustrator 25.0.0, SVG Export Plug-In . SVG Version: 6.00 Build 0)  -->
<svg version="1.1" id="图层_1" xmlns="http://www.w3.org/2000/svg" xmlns:xlink="http://www.w3.org/1999/xlink" x="0px" y="0px"
	 viewBox="0 0 16 14" style="enable-background:new 0 0 16 14;" xml:space="preserve">
<style type="text/css">
	.st0{fill:#D84D44;stroke:#000000;stroke-width:0.25;stroke-miterlimit:10;}
	.st1{fill:#53CFA5;stroke:#000000;stroke-width:0.25;stroke-miterlimit:10;}
	.st2{fill-rule:evenodd;clip-rule:evenodd;fill:#53CFA5;stroke:#000000;stroke-width:0.25;stroke-miterlimit:10;}
	.st3{fill-rule:evenodd;clip-rule:evenodd;fill:#D84D44;stroke:#000000;stroke-width:0.25;stroke-miterlimit:10;}
	.st4{fill-rule:evenodd;clip-rule:evenodd;fill:#D84D44;stroke:#000000;stroke-width:0.25;}
	.st5{fill-rule:evenodd;clip-rule:evenodd;fill:#53CFA5;fill-opacity:0.5;stroke:#000000;stroke-width:0.25;}
	.st6{fill-rule:evenodd;clip-rule:evenodd;fill:#FFFFFF;stroke:#000000;stroke-width:0.25;stroke-miterlimit:10;}
</style>
<g>
	<g>
		<path class="st0" d="M1.84,1.35h6.04C8,1.35,8.11,1.31,8.2,1.23c0.08-0.08,0.13-0.18,0.13-0.29c0-0.11-0.04-0.22-0.13-0.29
			C8.11,0.57,8,0.52,7.88,0.53H1.84c-0.12,0-0.24,0.04-0.32,0.12c-0.09,0.08-0.13,0.18-0.13,0.3c0,0.11,0.05,0.22,0.13,0.3
			C1.6,1.31,1.72,1.35,1.84,1.35L1.84,1.35z M0.94,3.5h7.84c0.25,0,0.45-0.18,0.45-0.41c0-0.23-0.2-0.41-0.45-0.41H0.94
			c-0.25,0-0.45,0.18-0.45,0.41C0.49,3.31,0.69,3.5,0.94,3.5L0.94,3.5z M2.5,4.83c-0.12,0-0.24,0.04-0.32,0.12
			c-0.09,0.08-0.13,0.19-0.13,0.3c0,0.11,0.05,0.22,0.13,0.3c0.09,0.08,0.2,0.12,0.32,0.12h4.73c0.12,0,0.24-0.04,0.32-0.12
			c0.08-0.08,0.13-0.19,0.13-0.3c0-0.11-0.04-0.22-0.13-0.3c-0.08-0.08-0.2-0.12-0.32-0.12L2.5,4.83z M15.85,9.94
			c0-0.02,0-0.03,0-0.05V9.77c-0.07-0.04-0.15-0.06-0.23-0.06h-2.08V7.72c0-0.22-0.19-0.4-0.43-0.4h-1.23v-2.9
			c0-0.11-0.05-0.21-0.13-0.28c-0.08-0.07-0.19-0.12-0.3-0.12H9.01c-0.11,0-0.22,0.04-0.3,0.12C8.62,4.21,8.58,4.31,8.58,4.41v2.76
			H3.23c-0.11,0-0.22,0.04-0.3,0.12C2.85,7.36,2.8,7.46,2.8,7.57v1.99H0.82C0.71,9.59,0.61,9.66,0.55,9.75L0.49,9.83v0.05
			c0,0.02,0,0.03,0,0.05v0.03c0,0.02,0,0.04,0,0.05c0.01,0.05,0.04,0.1,0.07,0.15l2.5,3.2c0.08,0.11,0.22,0.17,0.36,0.17h9.48
			c0.15,0.01,0.29-0.06,0.38-0.17l2.48-3.14v-0.1c0-0.02,0-0.03,0-0.05v-0.04C15.76,10.02,15.85,9.94,15.85,9.94L15.85,9.94z
			 M9.46,4.83H11v2.35H9.46V4.83z M3.71,7.98h8.98v1.57H3.68L3.71,7.98z M12.7,12.7H3.65l-1.84-2.33h12.7L12.7,12.7z M12.7,12.7"/>
	</g>
</g>
</svg>
