<?xml version="1.0" encoding="utf-8"?>
<!-- Generator: Adobe Illustrator 25.2.0, SVG Export Plug-In . SVG Version: 6.00 Build 0)  -->
<svg version="1.1" id="图层_1" xmlns="http://www.w3.org/2000/svg" xmlns:xlink="http://www.w3.org/1999/xlink" x="0px" y="0px"
	 viewBox="0 0 16 14" style="enable-background:new 0 0 16 14;" xml:space="preserve">
<style type="text/css">
	.st0{fill:#D84D44;stroke:#000000;stroke-width:0.25;stroke-miterlimit:10;}
	.st1{fill:#EEEE6D;stroke:#000000;stroke-width:0.25;stroke-miterlimit:10;}
	.st2{fill:#7E7E7E;stroke:#000000;stroke-width:0.25;stroke-miterlimit:10;}
	.st3{fill:#74FBFD;stroke:#000000;stroke-width:0.25;stroke-miterlimit:10;}
	.st4{fill:#0004E3;stroke:#000000;stroke-width:0.25;stroke-miterlimit:10;}
	.st5{fill-rule:evenodd;clip-rule:evenodd;fill:#E536F2;stroke:#000000;stroke-width:0.25;stroke-miterlimit:10;}
	.st6{fill-rule:evenodd;clip-rule:evenodd;fill:#D84D44;stroke:#000000;stroke-width:0.25;stroke-miterlimit:10;}
</style>
<g>
	<path class="st6" d="M5.33,7.8c0-1.2,0-2.39,0-3.59c0-0.37,0-0.37-0.39-0.37c-1.2,0-2.4,0-3.6,0c-0.31,0-0.31-0.01-0.31-0.3
		C1.05,2.94,0.91,2.98,1.6,2.98c1.15,0,2.29,0,3.44,0c0.28,0,0.29-0.01,0.29-0.28c0-0.41,0-0.82,0-1.23c0.01-0.66,0.5-1.2,1.13-1.26
		c0.72-0.07,1.33,0.36,1.46,1.04C8,1.62,7.83,1.87,7.51,1.87c-0.22,0-0.35-0.1-0.41-0.32C7.06,1.43,7.04,1.31,6.97,1.21
		C6.87,1.06,6.71,1,6.52,1.05C6.34,1.1,6.2,1.23,6.19,1.42c-0.02,0.47-0.01,0.95,0,1.43c0,0.05,0.09,0.12,0.15,0.13
		C6.44,3,6.55,2.98,6.65,2.98c1.23,0,2.46,0,3.69,0.01c0.22,0,0.28-0.07,0.28-0.27c-0.01-0.41,0-0.82,0-1.23
		c0.01-0.63,0.46-1.17,1.06-1.26c0.69-0.11,1.3,0.25,1.5,0.89c0.04,0.11,0.04,0.24,0.04,0.36c0,0.23-0.16,0.38-0.38,0.39
		c-0.24,0.01-0.42-0.12-0.46-0.35c-0.01-0.07-0.01-0.15-0.04-0.21c-0.08-0.19-0.28-0.3-0.48-0.27c-0.21,0.03-0.36,0.21-0.37,0.45
		c-0.01,0.27,0,0.55,0,0.82c0,0.67,0,0.67,0.68,0.67c0.85,0,1.7,0.01,2.55,0c0.23,0,0.29,0.07,0.29,0.29
		c-0.01,0.57,0,0.57-0.58,0.57c-0.89,0-1.78,0.01-2.66,0c-0.21,0-0.28,0.05-0.28,0.27c0.01,2.41,0,4.81,0,7.22c0,0.05,0,0.1,0,0.15
		c0,0.14,0.07,0.16,0.19,0.1c0.24-0.12,0.48-0.25,0.74-0.34c0.78-0.27,1.55-0.22,2.3,0.13c0.05,0.02,0.09,0.05,0.13,0.08
		c0.15,0.09,0.2,0.22,0.12,0.37c-0.08,0.15-0.22,0.18-0.38,0.09c-0.43-0.23-0.88-0.32-1.37-0.29c-0.37,0.02-0.71,0.13-1.03,0.3
		c-0.97,0.53-1.96,0.53-2.94,0.01c-0.82-0.43-1.63-0.44-2.45,0c-0.97,0.52-1.95,0.52-2.92,0c-0.76-0.41-1.52-0.43-2.29-0.08
		c-0.03,0.01-0.07,0.03-0.1,0.05c-0.17,0.09-0.33,0.06-0.41-0.1c-0.09-0.17,0.01-0.3,0.17-0.36c0.34-0.13,0.69-0.28,1.05-0.33
		C2.96,11,3.6,11.15,4.2,11.48c0.25,0.14,0.57,0.2,0.86,0.26c0.23,0.05,0.27,0.01,0.27-0.23c0-1.13,0-2.26,0-3.39
		C5.33,8.01,5.33,7.91,5.33,7.8z M8.4,8.78C8.4,8.78,8.4,8.78,8.4,8.78c0.66,0,1.32,0,1.97,0c0.17,0,0.24-0.05,0.24-0.22
		c-0.01-0.62-0.01-1.24,0-1.86c0-0.17-0.06-0.23-0.23-0.23c-1.32,0-2.65,0-3.97,0c-0.17,0-0.23,0.06-0.23,0.23
		c0.01,0.6,0.01,1.21,0,1.81c0,0.2,0.07,0.27,0.27,0.26C7.1,8.77,7.75,8.78,8.4,8.78z M8.41,3.84C8.41,3.84,8.41,3.84,8.41,3.84
		c-0.67,0-1.33,0.01-2,0c-0.17,0-0.24,0.05-0.23,0.22c0.01,0.45,0.01,0.89,0,1.34c0,0.17,0.06,0.22,0.23,0.22c1.32,0,2.65,0,3.97,0
		c0.18,0,0.23-0.07,0.23-0.23c-0.01-0.44-0.01-0.88,0-1.32c0.01-0.19-0.06-0.25-0.26-0.25C9.71,3.85,9.06,3.84,8.41,3.84z
		 M6.21,11.61c0.15-0.07,0.26-0.12,0.38-0.17c0.97-0.5,1.93-0.49,2.9,0c0.28,0.14,0.59,0.21,0.89,0.3c0.15,0.05,0.23,0,0.23-0.18
		c-0.01-0.58,0-1.17,0-1.75c0-0.14-0.05-0.21-0.2-0.2c-1.34,0-2.68,0-4.02,0c-0.17,0-0.21,0.07-0.21,0.22c0.01,0.52,0,1.04,0,1.56
		C6.18,11.44,6.19,11.5,6.21,11.61z"/>
	<path class="st6" d="M2.58,12.54c0.6,0.03,1.08,0.14,1.53,0.39c0.81,0.45,1.62,0.45,2.44,0.01c0.96-0.51,1.94-0.53,2.9-0.01
		c0.84,0.45,1.66,0.45,2.5,0c0.93-0.5,1.88-0.5,2.82-0.02c0.09,0.05,0.19,0.17,0.21,0.27c0.03,0.2-0.17,0.31-0.38,0.23
		c-0.25-0.09-0.49-0.21-0.74-0.27c-0.57-0.13-1.12-0.05-1.63,0.24c-1.02,0.56-2.03,0.56-3.05,0c-0.77-0.42-1.56-0.41-2.33,0
		c-1.02,0.55-2.02,0.55-3.03,0c-0.72-0.39-1.47-0.4-2.21-0.06c-0.05,0.02-0.09,0.04-0.14,0.07c-0.17,0.09-0.3,0.05-0.39-0.11
		c-0.09-0.15,0-0.28,0.12-0.34c0.22-0.11,0.45-0.22,0.69-0.29C2.14,12.58,2.41,12.57,2.58,12.54z"/>
</g>
</svg>
