<?xml version="1.0" encoding="utf-8"?>
<!-- Generator: Adobe Illustrator 25.2.0, SVG Export Plug-In . SVG Version: 6.00 Build 0)  -->
<svg version="1.1" id="图层_1" xmlns="http://www.w3.org/2000/svg" xmlns:xlink="http://www.w3.org/1999/xlink" x="0px" y="0px"
	 viewBox="0 0 16 14" style="enable-background:new 0 0 16 14;" xml:space="preserve">
<style type="text/css">
	.st0{fill:#D84D44;stroke:#000000;stroke-width:0.25;stroke-miterlimit:10;}
	.st1{fill:#EEEE6D;stroke:#000000;stroke-width:0.25;stroke-miterlimit:10;}
	.st2{fill:#7E7E7E;stroke:#000000;stroke-width:0.25;stroke-miterlimit:10;}
	.st3{fill:#74FBFD;stroke:#000000;stroke-width:0.25;stroke-miterlimit:10;}
	.st4{fill:#0004E3;stroke:#000000;stroke-width:0.25;stroke-miterlimit:10;}
	.st5{fill-rule:evenodd;clip-rule:evenodd;fill:#E536F2;stroke:#000000;stroke-width:0.25;stroke-miterlimit:10;}
	.st6{fill-rule:evenodd;clip-rule:evenodd;fill:#D84D44;stroke:#000000;stroke-width:0.25;stroke-miterlimit:10;}
</style>
<g>
	<path class="st1" d="M8.53,5.59c0.09,0.1,0.22,0.15,0.35,0.15h3.91c0.13,0,0.26-0.05,0.35-0.15c0.09-0.1,0.14-0.23,0.14-0.37V4.97
		c0-0.14-0.05-0.27-0.14-0.37c-0.09-0.1-0.22-0.15-0.35-0.15H8.87c-0.13,0-0.25,0.05-0.35,0.15C8.44,4.7,8.39,4.83,8.39,4.97
		l0.01,0.26C8.39,5.36,8.44,5.49,8.53,5.59z"/>
	<path class="st1" d="M6.43,8.3h6.83c0.13,0,0.26-0.05,0.35-0.15c0.09-0.1,0.14-0.23,0.14-0.37V6.77c0-0.29-0.22-0.52-0.49-0.52
		H6.43c-0.27,0-0.49,0.23-0.49,0.52v1.01c0,0.14,0.05,0.27,0.14,0.37C6.18,8.25,6.3,8.3,6.43,8.3z"/>
	<path class="st1" d="M3.95,3.34c0,0.09,0.07,0.17,0.16,0.17H4.9c0.04,0,0.08-0.02,0.11-0.05c0.03-0.03,0.05-0.07,0.05-0.12
		c0-0.09-0.07-0.16-0.16-0.17H4.11C4.03,3.18,3.96,3.25,3.95,3.34z"/>
	<path class="st1" d="M3.76,2.72C3.8,2.8,3.9,2.83,3.97,2.79l0.67-0.4c0.04-0.02,0.06-0.06,0.07-0.1C4.73,2.25,4.73,2.2,4.71,2.16
		C4.69,2.12,4.66,2.09,4.62,2.08C4.58,2.06,4.53,2.07,4.5,2.09L3.82,2.5C3.74,2.54,3.72,2.64,3.76,2.72z"/>
	<path class="st1" d="M3.32,2.32C3.35,2.34,3.4,2.35,3.44,2.34s0.07-0.04,0.1-0.08l0.39-0.72c0.04-0.08,0.02-0.18-0.06-0.23
		C3.79,1.26,3.7,1.29,3.65,1.37L3.24,2.09h0.01C3.22,2.13,3.22,2.18,3.23,2.22C3.25,2.26,3.28,2.3,3.32,2.32z"/>
	<path class="st1" d="M2.79,2.19c0.05-0.04,0.08-0.1,0.07-0.17V1.2c0.01-0.07-0.02-0.13-0.07-0.17c-0.05-0.04-0.12-0.04-0.17,0
		C2.56,1.06,2.53,1.13,2.54,1.2v0.83C2.53,2.09,2.56,2.16,2.61,2.19C2.67,2.23,2.73,2.23,2.79,2.19z"/>
	<path class="st1" d="M1.99,3.9c0,0.04,0.01,0.09,0.04,0.12c0.03,0.03,0.07,0.05,0.11,0.05h1.26c0.09,0,0.16-0.07,0.16-0.17V3.78
		c0.01-0.44-0.3-0.81-0.71-0.86C2.64,2.9,2.42,2.97,2.26,3.12S2,3.5,1.99,3.73V3.9z"/>
	<path class="st1" d="M3.56,4.56c0-0.13-0.07-0.24-0.16-0.24H2.15c-0.09,0-0.16,0.11-0.16,0.24v2.22c0,0.13,0.07,0.24,0.16,0.24
		h1.23h0.03c0.08,0,0.16-0.11,0.16-0.24V4.56z"/>
	<path class="st1" d="M2.15,7.35c-0.04,0-0.08,0.02-0.11,0.05C2.01,7.42,1.99,7.47,1.99,7.51v0.49c0,0.18,0.14,0.33,0.32,0.33h0.91
		c0.17,0,0.32-0.15,0.32-0.33V7.51h0.03c0-0.09-0.07-0.17-0.16-0.17H2.15z"/>
	<path class="st1" d="M1.89,2.34c0.02,0.04,0.05,0.07,0.09,0.08C2.02,2.43,2.06,2.42,2.1,2.4c0.04-0.02,0.06-0.06,0.07-0.1
		c0.01-0.04,0.01-0.09-0.02-0.13L1.77,1.45c-0.05-0.08-0.14-0.1-0.22-0.06C1.48,1.44,1.47,1.55,1.51,1.62L1.89,2.34z"/>
	<path class="st1" d="M1.5,2.93c0.08,0.05,0.17,0.02,0.22-0.06c0.04-0.08,0.02-0.18-0.06-0.23L0.98,2.23
		C0.94,2.21,0.9,2.2,0.86,2.22C0.82,2.23,0.78,2.27,0.77,2.31C0.75,2.35,0.74,2.39,0.75,2.43c0.01,0.04,0.04,0.08,0.08,0.1L1.5,2.93
		z"/>
	<path class="st1" d="M1.55,3.64C1.58,3.61,1.6,3.56,1.6,3.52c0-0.04-0.02-0.09-0.05-0.12C1.52,3.37,1.48,3.35,1.44,3.35H0.66
		c-0.09,0-0.16,0.07-0.16,0.17c0,0.04,0.01,0.09,0.04,0.12c0.03,0.03,0.07,0.05,0.11,0.05h0.78C1.48,3.69,1.52,3.67,1.55,3.64z"/>
	<path class="st1" d="M15.45,9.63c0.08-0.18,0.06-0.39-0.05-0.56c-0.11-0.16-0.29-0.25-0.48-0.23H2.01c-0.2-0.01-0.39,0.1-0.49,0.28
		c-0.1,0.19-0.09,0.41,0.03,0.59l2.18,2.85c-0.76,0.15-1.48,0.49-2.1,0.97c-0.08,0.07-0.11,0.18-0.08,0.29s0.13,0.17,0.23,0.17
		c0.06,0,0.11-0.02,0.16-0.06c0.84-0.64,1.84-0.98,2.88-0.97c0.54-0.03,1.08,0.13,1.53,0.45c0.62,0.43,1.36,0.64,2.1,0.58
		c0.72,0.06,1.43-0.14,2.03-0.56c0.46-0.34,1.02-0.5,1.58-0.46c1-0.05,1.98,0.3,2.75,0.96c0.1,0.08,0.24,0.07,0.33-0.02
		c0.09-0.09,0.1-0.24,0.02-0.35c-0.39-0.36-0.84-0.63-1.32-0.81c0.04-0.04,0.06-0.1,0.08-0.15L15.45,9.63z"/>
</g>
</svg>
