<?xml version="1.0" encoding="utf-8"?>
<!-- Generator: Adobe Illustrator 25.0.0, SVG Export Plug-In . SVG Version: 6.00 Build 0)  -->
<svg version="1.1" id="图层_1" xmlns="http://www.w3.org/2000/svg" xmlns:xlink="http://www.w3.org/1999/xlink" x="0px" y="0px"
	 viewBox="0 0 16 14" style="enable-background:new 0 0 16 14;" xml:space="preserve">
<style type="text/css">
	.st0{fill:#D84D44;stroke:#000000;stroke-width:0.25;stroke-miterlimit:10;}
	.st1{fill:#53CFA5;stroke:#000000;stroke-width:0.25;stroke-miterlimit:10;}
	.st2{fill-rule:evenodd;clip-rule:evenodd;fill:#53CFA5;stroke:#000000;stroke-width:0.25;stroke-miterlimit:10;}
	.st3{fill-rule:evenodd;clip-rule:evenodd;fill:#D84D44;stroke:#000000;stroke-width:0.25;stroke-miterlimit:10;}
	.st4{fill-rule:evenodd;clip-rule:evenodd;fill:#D84D44;stroke:#000000;stroke-width:0.25;}
	.st5{fill-rule:evenodd;clip-rule:evenodd;fill:#53CFA5;fill-opacity:0.5;stroke:#000000;stroke-width:0.25;}
	.st6{fill-rule:evenodd;clip-rule:evenodd;fill:#FFFFFF;stroke:#000000;stroke-width:0.25;stroke-miterlimit:10;}
</style>
<g id="矩形_3_">
	<polygon class="st6" points="8.43,4.89 11.51,7.32 10.33,11.01 6.35,11.01 5.08,7.32 	"/>
	<path id="形状_3_" class="st1" d="M13.78,6.24c-0.45-2.61,0-4.59,0-4.59l-2.08-1.26c0,0-1.36,1.08-2.08,1.08
		c-0.54,0-1.36-1.26-1.36-1.26S7.43,1.38,6.89,1.47C6.26,1.56,4.81,0.39,4.81,0.39L2.63,1.65c0,0,0.63,1.8,0.09,4.59
		C2,9.84,3.99,11.55,5.08,12.18c1.54,0.99,3.17,1.53,3.17,1.53s1.54-0.54,3.17-1.53C12.96,11.37,14.41,9.84,13.78,6.24z
		 M11.24,11.91c-1.54,0.9-2.99,1.44-2.99,1.44s-1.54-0.54-2.99-1.44c-1-0.63-2.9-2.16-2.18-5.49C3.63,3.81,3.17,2.1,3.17,2.1
		l1.63-0.99c0,0,1.54,1.08,2.08,0.99c0.54-0.09,1.36-0.99,1.36-0.99S9.07,2.1,9.61,2.1c0.63,0,2.08-0.99,2.08-0.99l1.63,0.99
		c0,0-0.27,1.98,0.09,4.41C13.96,9.57,12.6,11.1,11.24,11.91L11.24,11.91z M12.78,2.46l-1.27-0.72c0,0-1.36,0.9-1.99,0.9
		c-0.54,0-1.27-0.9-1.27-0.9S7.52,2.55,6.89,2.55c-0.45,0-1.9-0.99-1.9-0.99L3.63,2.37c0,0,0.36,1.71-0.09,4.14
		c-0.63,3.06,1.09,4.41,1.99,5.04c1.27,0.81,2.72,1.26,2.72,1.26s1.36-0.54,2.72-1.35c1.27-0.72,2.45-2.07,1.99-5.04
		C12.6,4.35,12.78,2.46,12.78,2.46z M9.7,8.76l0.36,1.89l-1.72-0.9l-1.72,0.9l0.36-1.89L5.53,7.41l1.99-0.27l0.82-1.71l0.82,1.71
		l1.99,0.27L9.7,8.76z"/>
</g>
</svg>
