<?xml version="1.0" encoding="utf-8"?>
<!-- Generator: Adobe Illustrator 25.0.0, SVG Export Plug-In . SVG Version: 6.00 Build 0)  -->
<svg version="1.1" id="图层_1" xmlns="http://www.w3.org/2000/svg" xmlns:xlink="http://www.w3.org/1999/xlink" x="0px" y="0px"
	 viewBox="0 0 16 14" style="enable-background:new 0 0 16 14;" xml:space="preserve">
<style type="text/css">
	.st0{fill:#D84D44;stroke:#000000;stroke-width:0.25;stroke-miterlimit:10;}
	.st1{fill:#53CFA5;stroke:#000000;stroke-width:0.25;stroke-miterlimit:10;}
	.st2{fill-rule:evenodd;clip-rule:evenodd;fill:#53CFA5;stroke:#000000;stroke-width:0.25;stroke-miterlimit:10;}
	.st3{fill-rule:evenodd;clip-rule:evenodd;fill:#D84D44;stroke:#000000;stroke-width:0.25;stroke-miterlimit:10;}
	.st4{fill-rule:evenodd;clip-rule:evenodd;fill:#D84D44;stroke:#000000;stroke-width:0.25;}
	.st5{fill-rule:evenodd;clip-rule:evenodd;fill:#53CFA5;fill-opacity:0.5;stroke:#000000;stroke-width:0.25;}
	.st6{fill-rule:evenodd;clip-rule:evenodd;fill:#FFFFFF;stroke:#000000;stroke-width:0.25;stroke-miterlimit:10;}
</style>
<g id="矩形_1_">
	<polygon class="st6" points="8.08,4.88 11.16,7.31 9.98,11 6,11 4.73,7.31 	"/>
	<path id="形状_1_" class="st0" d="M13.43,6.23c-0.45-2.61,0-4.59,0-4.59l-2.08-1.26c0,0-1.36,1.08-2.08,1.08
		C8.71,1.46,7.9,0.2,7.9,0.2S7.08,1.37,6.54,1.46C5.9,1.55,4.45,0.38,4.45,0.38L2.28,1.64c0,0,0.63,1.8,0.09,4.59
		c-0.73,3.6,1.27,5.31,2.36,5.94C6.27,13.16,7.9,13.7,7.9,13.7s1.54-0.54,3.17-1.53C12.61,11.36,14.06,9.83,13.43,6.23z M10.89,11.9
		c-1.54,0.9-2.99,1.44-2.99,1.44S6.36,12.8,4.91,11.9c-1-0.63-2.9-2.16-2.18-5.49C3.28,3.8,2.82,2.09,2.82,2.09L4.45,1.1
		c0,0,1.54,1.08,2.08,0.99S7.9,1.1,7.9,1.1s0.82,0.99,1.36,0.99c0.63,0,2.08-0.99,2.08-0.99l1.63,0.99c0,0-0.27,1.98,0.09,4.41
		C13.61,9.56,12.25,11.09,10.89,11.9L10.89,11.9z M12.43,2.45l-1.27-0.72c0,0-1.36,0.9-1.99,0.9c-0.54,0-1.27-0.9-1.27-0.9
		S7.17,2.54,6.54,2.54c-0.45,0-1.9-0.99-1.9-0.99L3.28,2.36c0,0,0.36,1.71-0.09,4.14c-0.63,3.06,1.09,4.41,1.99,5.04
		C6.45,12.35,7.9,12.8,7.9,12.8s1.36-0.54,2.72-1.35c1.27-0.72,2.45-2.07,1.99-5.04C12.25,4.34,12.43,2.45,12.43,2.45z M9.35,8.75
		l0.36,1.89l-1.72-0.9l-1.72,0.9l0.36-1.89L5.18,7.4l1.99-0.27l0.82-1.71l0.82,1.71L10.8,7.4L9.35,8.75z"/>
</g>
</svg>
