<?xml version="1.0" encoding="UTF-8"?>
<svg width="14px" height="17px" viewBox="0 0 14 17" version="1.1" xmlns="http://www.w3.org/2000/svg" xmlns:xlink="http://www.w3.org/1999/xlink">
    <!-- Generator: Sketch 63 (92445) - https://sketch.com -->
    <title>编组</title>
    <desc>Created with Sketch.</desc>
    <g id="页面-1" stroke="none" stroke-width="1" fill="none" fill-rule="evenodd">
        <g id="首页4" transform="translate(-1723.000000, -655.000000)">
            <g id="编组备份-9" transform="translate(1609.000000, 505.000000)">
                <g id="编组" transform="translate(114.000000, 150.000000)">
                    <g>
                        <path d="M9.57960786,5.55918858 C9.46691862,5.70959839 9.44892154,5.90652396 9.53262797,6.07324659 C9.61633439,6.23996921 9.78850487,6.35011917 9.98206485,6.36078398 C10.1756248,6.37144879 10.3599598,6.28094167 10.4632562,6.12452256 C10.9325662,5.45704966 11.1824022,4.67130602 11.1808287,3.86775396 C11.1820794,3.06424725 10.9322713,2.2785914 10.4632562,1.61098535 C10.3587557,1.45702844 10.1752608,1.36879365 9.98327848,1.38018476 C9.79129616,1.39157586 9.62069352,1.50082073 9.53702379,1.66594255 C9.45335406,1.83106438 9.4696339,2.02637482 9.57960786,2.17682681 C9.93097326,2.67703914 10.1179704,3.26574343 10.116717,3.86775396 C10.1182056,4.46995541 9.93119271,5.05888599 9.57960786,5.55918858 L9.57960786,5.55918858 Z M3.38182604,6.12401508 C3.54543218,6.35692285 3.87611091,6.41929119 4.12041766,6.26331866 C4.36472441,6.10734612 4.43014517,5.79209635 4.26653903,5.55918858 C3.915267,5.05871699 3.72811481,4.46993114 3.72889756,3.86775396 C3.72808265,3.26557225 3.91523761,2.67677767 4.26653903,2.17631933 C4.42979588,1.94331693 4.36456923,1.62831551 4.12068382,1.47193552 C3.87621607,1.31659125 3.54603438,1.37873002 3.38182604,1.61098535 C2.91275204,2.2785648 2.66293832,3.06423818 2.66425576,3.86775396 C2.66304412,4.67109689 2.91285327,5.45657921 3.38182604,6.12401508 L3.38182604,6.12401508 Z M2.06380595,0.796985609 C2.2272651,0.563937701 2.16160601,0.248687929 1.91715227,0.0928555337 C1.67269852,-0.0629768613 1.34201979,-0.000381320859 1.17856064,0.232666586 C0.408973313,1.33008471 -0.00123465417,2.62075138 3.96482167e-06,3.94083124 C-0.00147160748,5.26117719 0.408952493,6.55211755 1.17909296,7.64950338 C1.25750478,7.7616132 1.37954572,7.83931273 1.51821113,7.86540896 C1.65687653,7.89150519 1.80073376,7.86384654 1.91795074,7.78855321 C2.03531739,7.71362126 2.1166319,7.59728995 2.14398846,7.46517596 C2.17134501,7.33306196 2.14250027,7.19599916 2.06380595,7.08416939 C1.41067197,6.154089 1.06300812,5.0595871 1.06517685,3.94032376 C1.06330729,2.82126039 1.41094987,1.7270021 2.06380595,0.796985609 L2.06380595,0.796985609 Z M13.468193,1.38667869 C13.2929828,0.982549719 13.0761549,0.595986464 12.8208939,0.232666586 C12.7167096,0.0784764515 12.5333622,-0.0101223375 12.3413237,0.000924361485 C12.1492852,0.0119710605 11.9784424,0.120944056 11.8944611,0.285958104 C11.8104798,0.450972151 11.82643,0.646346206 11.9361809,0.796985609 C12.589739,1.72690247 12.9376119,2.82147897 12.9353424,3.94083124 C12.9372156,5.05996989 12.5893724,6.15427632 11.9361809,7.08416939 C11.7846296,7.31667272 11.8535756,7.62184596 12.0920881,7.77425614 C12.3306007,7.92666632 12.6528965,7.87149759 12.8208939,7.64950338 C13.5918877,6.55250268 14.0023925,5.26130853 13.9999895,3.94083124 C13.9999895,3.05781407 13.82112,2.1986485 13.468193,1.38667869 L13.468193,1.38667869 Z" id="形状" fill="#000000" fill-rule="nonzero"></path>
                        <path d="M7.05104986,2.8890351 L11.1827804,16.6385237 C9.97017785,15.5277449 8.48930927,14.875 6.8906332,14.875 C5.30404358,14.875 3.83348687,15.5179124 2.62603484,16.6134089 L6.8906332,2.8890351 L7.05104986,2.8890351 Z" id="形状结合备份" stroke="#000000" stroke-width="0.5" fill="#53CFA5" fill-rule="nonzero"></path>
                    </g>
                </g>
            </g>
        </g>
    </g>
</svg>