<?xml version="1.0" encoding="UTF-8"?>
<svg width="13px" height="15px" viewBox="0 0 13 15" version="1.1" xmlns="http://www.w3.org/2000/svg" xmlns:xlink="http://www.w3.org/1999/xlink">
    <!-- Generator: Sketch 63 (92445) - https://sketch.com -->
    <title>矩形</title>
    <desc>Created with Sketch.</desc>
    <g id="页面-1" stroke="none" stroke-width="1" fill="none" fill-rule="evenodd">
        <g id="首页4" transform="translate(-1610.000000, -739.000000)">
            <g id="编组" transform="translate(1610.000000, 739.000000)">
                <g id="矩形">
                    <polygon fill="#FFFFFF" fill-rule="evenodd" points="6.5 5.13842773 9.9699707 7.83886719 8.60424805 11.9160156 4.2565918 11.9160156 2.86108398 7.83886719"></polygon>
                    <path d="M12.4666774,6.64695421 C12.0064701,3.78360297 12.4666774,1.52925861 12.4666774,1.52925861 L10.1607364,0.176561503 C10.1607364,0.176561503 8.64514154,1.34265286 7.85403525,1.35300477 C7.2048333,1.36111255 6.31668695,0 6.31668695,0 C6.31668695,0 5.44819475,1.28714711 4.77933866,1.35314955 C4.12713248,1.41674499 2.47294521,0.176706285 2.47294521,0.176706285 L0.0414421222,1.59631072 C0.0414421222,1.59631072 0.790833133,3.56340783 0.16714899,6.70560897 C-0.626943427,10.7033986 1.60309568,12.563701 2.76918704,13.2939084 C4.4737765,14.3616024 6.31668695,15 6.31668695,15 C6.31668695,15 8.0605847,14.350798 9.86463932,13.2939084 C11.5099768,12.3309098 13.0951755,10.5561012 12.4666774,6.64695421 Z M9.61186825,12.8782577 C7.9279645,13.8642042 6.30047138,14.4702069 6.30047138,14.4702069 C6.30047138,14.4702069 4.58011879,13.8750086 2.98876685,12.8782577 C1.9009663,12.1966608 -0.180580891,10.4605632 0.560575651,6.729317 C1.14303315,3.7969772 0.639934219,1.88192917 0.639934219,1.88192917 L2.47337956,0.764430229 C2.47337956,0.764430229 4.17062134,1.94177838 4.77962822,1.88192917 C5.40378291,1.82103029 6.31652407,0.764430229 6.31652407,0.764430229 C6.31652407,0.764430229 7.18921495,1.89003696 7.79521761,1.88192917 C8.53382237,1.87307938 10.1019187,0.764430229 10.1019187,0.764430229 L11.9353641,1.82343729 C11.9353641,1.82343729 11.6107631,4.00142731 12.0402223,6.67428179 C12.6264261,10.3224051 11.1462123,11.979307 9.61186825,12.8782577 L9.61186825,12.8782577 Z M11.3680725,2.38891912 L9.87557035,1.55582608 C9.87557035,1.55582608 8.37226389,2.55587072 7.71991294,2.55587072 C7.09845481,2.55587072 6.33842233,1.61147662 6.33842233,1.61147662 C6.33842233,1.61147662 5.49991808,2.50081741 4.84608311,2.55587072 C4.307585,2.60042735 2.74564188,1.50003077 2.74564188,1.50003077 L1.25344744,2.44442487 C1.25344744,2.44442487 1.65738888,4.36097501 1.14319603,7.00051156 C0.488745741,10.358854 2.39298942,11.9424058 3.35405154,12.5562085 C4.75879773,13.4535123 6.33844043,14.001005 6.33844043,14.001005 C6.33844043,14.001005 7.83559366,13.3888491 9.32282933,12.5007028 C10.678223,11.6912997 11.9965706,10.2278987 11.4777266,6.94471625 C11.0982171,4.53945487 11.3680725,2.38891912 11.3680725,2.38891912 Z M7.96202443,9.40589962 L8.37977445,11.4997533 L6.43082937,10.4713495 L4.48262629,11.4997533 L4.90097354,9.40589962 L3.2784211,7.94789179 L5.4853675,7.68194558 L6.43097415,5.7529442 L7.37777526,7.68194558 L9.58426921,7.94789179 L7.96202443,9.40589962 Z" id="形状" fill="#0F227F" fill-rule="nonzero"></path>
                </g>
            </g>
        </g>
    </g>
</svg>