<?xml version="1.0" encoding="UTF-8"?>
<svg width="77px" height="75px" viewBox="0 0 77 75" version="1.1" xmlns="http://www.w3.org/2000/svg" xmlns:xlink="http://www.w3.org/1999/xlink">
    <!-- Generator: Sketch 63 (92445) - https://sketch.com -->
    <title>最大扫描数量</title>
    <desc>Created with Sketch.</desc>
    <defs>
        <rect id="path-1" x="0" y="0" width="73" height="71"></rect>
        <filter x="-3.4%" y="-3.5%" width="106.8%" height="107.0%" filterUnits="objectBoundingBox" id="filter-2">
            <feMorphology radius="0.5" operator="dilate" in="SourceAlpha" result="shadowSpreadOuter1"></feMorphology>
            <feOffset dx="0" dy="0" in="shadowSpreadOuter1" result="shadowOffsetOuter1"></feOffset>
            <feMorphology radius="2.5" operator="erode" in="SourceAlpha" result="shadowInner"></feMorphology>
            <feOffset dx="0" dy="0" in="shadowInner" result="shadowInner"></feOffset>
            <feComposite in="shadowOffsetOuter1" in2="shadowInner" operator="out" result="shadowOffsetOuter1"></feComposite>
            <feGaussianBlur stdDeviation="0.5" in="shadowOffsetOuter1" result="shadowBlurOuter1"></feGaussianBlur>
            <feColorMatrix values="0 0 0 0 1   0 0 0 0 1   0 0 0 0 1  0 0 0 0.5 0" type="matrix" in="shadowBlurOuter1"></feColorMatrix>
        </filter>
    </defs>
    <g id="Page-1首页" stroke="none" stroke-width="1" fill="none" fill-rule="evenodd">
        <g id="1（1）首页" transform="translate(-575.000000, -622.000000)">
            <g id="雷达信息" transform="translate(246.000000, 436.000000)">
                <g id="编组-5"></g>
                <g id="最大扫描数量" transform="translate(331.000000, 188.000000)">
                    <path d="M37.7792889,14.5516042 C26.0421485,14.5516042 16.6139958,23.9797568 16.6139958,35.7168972 C16.6139958,47.4540376 26.0421485,56.8821902 37.7792889,56.8821902 C49.5164293,56.8821902 58.9445819,47.4540376 58.9445819,35.7168972 C58.9445819,23.9797568 49.5164293,14.5516042 37.7792889,14.5516042 Z M36.7714178,54.866448 C27.0322163,54.3865394 19.2026322,46.5155161 18.629738,36.7247683 L22.54453,36.7247683 C22.8309771,37.5886578 23.594851,38.3565746 24.5496598,38.548565 C25.7909156,44.3078284 30.6605164,48.7232487 36.6759056,49.1071846 L36.6759056,54.866448 L36.7714178,54.866448 Z M36.7714178,47.8113504 C31.7791517,47.4082182 27.8230279,43.4775265 26.6927068,38.4381625 C27.3520461,38.1358016 27.8230279,37.4303086 28.1056082,36.7247683 L33.0978743,36.7247683 C33.4746333,38.7405234 34.8875346,40.2523279 36.7714178,40.65546 L36.7714178,47.8113504 L36.7714178,47.8113504 Z M36.7714178,30.7783344 C34.8875346,31.1814665 33.4746333,32.693271 33.0978743,34.7090261 L28.1056082,34.7090261 C27.8230279,34.0034858 27.3520461,33.398764 26.6927068,32.9956319 C27.7288492,27.9562678 31.7791517,24.1263946 36.7714178,23.622444 L36.7714178,30.7783344 L36.7714178,30.7783344 Z M36.7714178,22.2607252 C30.7560286,22.6467491 25.8864278,27.0856631 24.6451272,32.8755705 C23.6903185,33.0685825 22.9264446,33.84054 22.6399975,34.7090261 L18.629738,34.7090261 C19.2026322,24.9627121 27.0322163,17.0498085 36.7714178,16.5673463 L36.7714178,22.2607252 L36.7714178,22.2607252 Z M38.78716,16.5673463 C48.5263615,17.047255 56.3559455,24.9182783 56.9288397,34.7090261 L51.1998976,34.7090261 C51.008918,32.309303 50.2450441,30.1975881 49.0037883,28.2778186 C49.1947679,27.8938827 49.2902354,27.5099468 49.2902354,27.0299932 C49.2902354,25.3981869 48.0489795,24.1503615 46.4257643,24.1503615 C45.9483376,24.1503615 45.566423,24.2463342 45.1845085,24.4383247 C43.3703136,23.1904993 41.174249,22.4225825 38.78716,22.230592 L38.78716,16.5673463 Z M38.8879312,24.6303151 C40.8029151,24.8152595 42.6170805,25.3700494 44.2296562,26.2022341 C44.0280665,26.5720796 43.9272953,26.9419684 43.9272953,27.3118138 C43.9272953,28.8837328 45.2375101,30.085763 46.9509043,30.085763 C47.3540364,30.085763 47.7572157,29.9933125 48.1603479,29.8083681 C49.1682018,31.2877932 49.7729236,32.8597122 49.873742,34.7090261 L42.7178517,34.7090261 C42.3147196,32.8597122 40.8029151,31.4727376 38.78716,31.1028921 L38.78716,24.6303151 L38.8879312,24.6303151 Z M38.78716,40.65546 C40.8029151,40.2523279 42.3147196,38.7405234 42.7178517,36.7247683 L49.873742,36.7247683 C49.3697915,42.5704438 44.7336068,47.3073998 38.78716,47.8113504 L38.78716,40.65546 Z M38.78716,54.866448 L38.78716,49.1071846 C45.3754434,48.627276 50.7224709,43.3479212 51.1998976,36.7247683 L56.9288397,36.7247683 C56.3559455,46.5155161 48.5263615,54.3865394 38.78716,54.866448 Z" id="形状" fill="#5A8AF8" fill-rule="nonzero"></path>
                    <g id="矩形备份-11">
                        <use fill="black" fill-opacity="1" filter="url(#filter-2)" xlink:href="#path-1"></use>
                        <rect stroke="#5A8AF8" stroke-width="2" stroke-linejoin="square" x="1" y="1" width="71" height="69"></rect>
                    </g>
                </g>
            </g>
        </g>
    </g>
</svg>